<svg xmlns="http://www.w3.org/2000/svg" xml:space="preserve" id="Capa_1" x="0" y="0" viewBox="0 0 400 200"><style>.st0{fill:#0891b2}</style><path d="M38.7 165.6c-1.7-4.3-2.5-11.1-2.5-20.5 0-13.9 2-27.1 5.9-39.6 1-3.1 2.5-5.4 4.7-6.8s5.3-2.2 9.2-2.2c2.1 0 3.6.3 4.5.8s1.3 1.6 1.3 3c0 1.7-.8 5.6-2.4 11.6-1.1 4.3-1.9 8-2.6 11.2-.6 3.2-1.2 7.1-1.6 11.8 2.9-8.3 6.3-15.4 10.3-21.2s8.1-10.1 12.4-12.9c4.2-2.8 8.2-4.3 12-4.3 3.7 0 6.4.9 7.9 2.6 1.6 1.7 2.3 4.3 2.3 7.9q0 5.1-3 18.6c-.9 3.9-1.4 6.7-1.8 8.7 5.3-13.2 11.3-22.7 17.8-28.7q9.75-9 18.3-9c7 0 10.4 3.5 10.4 10.4 0 4.2-1.2 11.7-3.5 22.6-2 9.3-3 15.5-3 18.5 0 4.3 1.5 6.4 4.6 6.4 2.1 0 4.7-1.3 7.6-3.9s6.9-6.9 11.8-12.8c1.3-1.5 2.7-2.2 4.3-2.2 1.4 0 2.5.6 3.3 1.9s1.2 3 1.2 5.3c0 4.3-1 7.6-3 10-4.6 5.7-9.5 10.3-14.8 14s-11.3 5.5-18.1 5.5c-5.5 0-9.6-1.6-12.4-4.7-2.8-3.2-4.2-7.7-4.2-13.7 0-3 .8-8.3 2.3-16 1.4-6.7 2.1-11.4 2.1-14 0-1.7-.6-2.6-1.8-2.6-1.4 0-3.4 1.8-5.9 5.4-2.6 3.6-5.1 8.3-7.7 14.2q-3.9 8.85-6.3 18.6c-1.2 5.1-2.5 8.6-4.1 10.3s-4 2.6-7.5 2.6-6.2-1.7-7.9-5.1c-1.8-3.4-2.6-7.5-2.6-12.3 0-4.1.5-10 1.6-17.7.9-6.8 1.3-11.3 1.3-13.5 0-1.7-.6-2.6-1.8-2.6-1.6 0-3.6 1.9-6.1 5.8s-4.8 8.8-7.1 14.8-4.1 11.9-5.5 17.7c-1.2 5-2.5 8.4-4.1 10.2s-4 2.7-7.3 2.7c-3.9-.4-6.8-2.5-8.5-6.8" class="st0"/><path d="M230.2 137.3c.8 1.3 1.2 3 1.2 5.3 0 4.3-1 7.6-3 10-4 4.8-9.6 9.3-16.8 13.3-7.2 4.1-15 6.1-23.2 6.1-11.2 0-20-3-26.2-9.1s-9.3-14.4-9.3-25c0-7.4 1.5-14.3 4.7-20.6 3.1-6.4 7.4-11.4 12.9-15.2 5.5-3.7 11.7-5.6 18.7-5.6 6.2 0 11.2 1.8 14.9 5.5s5.6 8.7 5.6 15c0 7.4-2.7 13.7-7.9 19s-14.3 9.5-26.9 12.6c2.7 4.9 7.8 7.4 15.2 7.4 4.8 0 10.3-1.7 16.4-5.1 6.2-3.4 11.5-7.8 16-13.2 1.3-1.5 2.7-2.2 4.3-2.2 1.5-.1 2.6.6 3.4 1.8m-53.8-18.2c-2.7 4.6-4.1 10.2-4.1 16.7v.3c6.3-1.5 11.3-3.7 14.9-6.7s5.5-6.5 5.5-10.4c0-2-.6-3.7-1.7-4.9s-2.7-1.8-4.6-1.8c-3.9-.1-7.3 2.2-10 6.8" class="st0"/><path d="M293.2 137.3c.8 1.3 1.2 3 1.2 5.3 0 4.3-1 7.6-3 10-4 4.8-9.6 9.3-16.8 13.3-7.2 4.1-15 6.1-23.2 6.1-11.2 0-20-3-26.2-9.1s-9.3-14.4-9.3-25c0-7.4 1.5-14.3 4.7-20.6 3.1-6.4 7.4-11.4 12.9-15.2 5.5-3.7 11.7-5.6 18.7-5.6 6.2 0 11.2 1.8 14.9 5.5s5.6 8.7 5.6 15c0 7.4-2.7 13.7-7.9 19-5.3 5.3-14.3 9.5-26.9 12.6 2.7 4.9 7.8 7.4 15.2 7.4 4.8 0 10.3-1.7 16.4-5.1 6.2-3.4 11.5-7.8 16-13.2 1.3-1.5 2.7-2.2 4.3-2.2 1.5-.1 2.6.6 3.4 1.8m-53.7-18.2c-2.7 4.6-4.1 10.2-4.1 16.7v.3c6.3-1.5 11.3-3.7 14.9-6.7s5.5-6.5 5.5-10.4c0-2-.6-3.7-1.7-4.9s-2.7-1.8-4.6-1.8c-4-.1-7.3 2.2-10 6.8" class="st0"/><path d="M356.3 137.3c.8 1.3 1.2 3 1.2 5.3 0 4.3-1 7.6-3 10-4.6 5.7-9.6 10.3-15.1 14-5.5 3.6-11.7 5.5-18.8 5.5-21.8 0-32.7-15.4-32.7-46.1 0-4.7.2-9.5.5-14.3h-6.3c-3.2 0-5.4-.6-6.5-1.8s-1.7-3-1.7-5.6q0-9 7.2-9h9.1c1.8-11.8 4.6-22.5 8.3-32.3 3.7-9.7 8.3-17.5 13.6-23.3q7.95-8.7 17.1-8.7c4.5 0 8 2 10.6 5.9 2.6 4 3.9 8.9 3.9 14.9 0 16.6-7 31-20.9 43.3h18c1.7 0 2.9.4 3.7 1.1.7.7 1.1 2.1 1.1 4.2 0 7.4-6 11.1-18.1 11.1h-19.6c-.2 5.4-.3 9.5-.3 12.5q0 16.65 3.9 23.4c2.6 4.5 6.8 6.7 12.4 6.7 4.6 0 8.7-1.4 12.2-4.2s7.7-7 12.5-12.5c1.3-1.5 2.7-2.2 4.3-2.2 1.5.2 2.6.9 3.4 2.1m-36.8-84.8c-2 4-3.8 9.6-5.6 16.7s-3.2 15-4.4 23.7c6.3-5.5 11-11.6 14.2-18.4s4.7-13 4.7-18.5c0-6.3-1.2-9.5-3.5-9.5q-2.4 0-5.4 6" class="st0"/><path d="M344.2 169.9c-1.3-1.4-1.9-3.6-1.9-6.6q0-1.35.3-4.5c1.7-19.6 4.5-37.4 8.5-53.4.9-3.3 2.3-5.6 4.3-7 2-1.3 5.2-2 9.5-2 4.6 0 6.9 1.9 6.9 5.6q0 .75-.3 3-7.2 34.35-8.7 57.6-.3 5.1-3 7.2c-1.8 1.4-4.6 2.1-8.5 2.1-3.5.1-5.9-.6-7.1-2m12.3-87.2c-2.2-2.1-3.4-5-3.4-8.7s1.5-6.9 4.4-9.4 6.6-3.8 11-3.8c4 0 7.2 1 9.6 2.9 2.5 1.9 3.7 4.7 3.7 8.2q0 6.45-4.2 10.2c-2.8 2.5-6.5 3.8-11.1 3.8-4.4-.1-7.7-1.1-10-3.2" class="st0"/></svg>
